<?xml version="1.0" encoding="UTF-8"?><svg id="Layer_1" xmlns="http://www.w3.org/2000/svg" xmlns:xlink="http://www.w3.org/1999/xlink" viewBox="628.57 435.28 341.73 237.92" width="100vw" height="100vh" preserveAspectRatio="none"><defs><style>.cls-1{fill:none;}.cls-2{clip-path:url(#clippath);}.cls-3{fill:#fad63e;}</style><clipPath id="clippath"><rect class="cls-1" x="625.42" y="433.67" width="300.46" height="239" rx="9.07" ry="9.07"/></clipPath></defs><g class="cls-2"><g><g><path class="cls-3" d="M905.6,549.98c-7.41,0-14.12,.18-20.81-.06-4.61-.16-6.56,1.73-7.65,6.22-3.37,13.81-7,27.57-11.14,41.16-.75,2.46-4.36,5.76-6.68,5.79-37.16,.36-74.32,.32-111.49,.06-2.2-.02-5.75-2.29-6.35-4.24-6.39-20.72-12.3-41.58-18.89-64.26h10.94c26.93,0,53.86,.1,80.79-.03,21.29-.11,18.4,2.54,18.57-18.34,.09-11.14-.1-11.27-11.25-11.28-32.85-.03-65.71-.25-98.56,.17-7.33,.09-10.43-2.34-12.21-9.24-3.35-12.98-7.41-25.8-11.58-38.55-.75-2.29-3.42-5.58-5.28-5.62-15.07-.39-30.18-.63-45.21,.17-8.44,.45-13,7.47-12.28,15.98,.61,7.15,6.16,11.89,14.49,12.1,5.92,.15,11.88,.43,17.76-.08,5.62-.49,8.29,1.63,9.72,6.97,3.04,11.4,6.48,22.7,9.85,34.02,9.11,30.6,18.13,61.22,27.46,91.74,3.35,10.97,11.97,18.19,21.8,19.09,4.63-9.34,14.22-15.49,25.68-15.42,11.68,.07,21.33,6.67,25.71,16.49,.85,0,1.7,.02,2.55,.01,8.89-.02,17.79-.12,26.68-.25,4.82-9.09,14.4-15.18,25.58-15.15,10.06,.03,19.18,5.78,24.29,14.13,12.13-1.47,19.41-7.68,23.1-20.46,5.14-17.77,9.69-35.71,14.33-53.62,.55-2.14,.08-4.55,.08-7.52Z"/><path class="cls-3" d="M825.26,668.43c4.36,4.41,10.39,7.12,17.14,7.13,4.1,0,8.01-1.03,11.49-2.83-3.35,1.34-6.99,2.09-10.75,2.09-6.83,0-13.03-2.39-17.88-6.39Z"/><path class="cls-3" d="M867.49,651.29c0-7.65-3.7-14.67-9.31-19.31-10.57,.14-21.15,.32-31.72,.49-5.05,4.44-8.22,10.93-8.27,18.26-.05,6.97,2.65,13.21,7.07,17.7,4.84,4,11.04,6.38,17.88,6.39,3.76,0,7.39-.75,10.75-2.09,7.98-4.13,13.61-12.33,13.6-21.44Z"/><path class="cls-3" d="M842.97,626.34c-6.38-.02-12.15,2.29-16.52,6.13,10.57-.17,21.14-.35,31.72-.49-4.22-3.49-9.54-5.62-15.2-5.64Z"/><path class="cls-3" d="M745.89,667.98c4.27,3.97,10.06,6.34,16.65,6.37,5.44,.02,10.35-1.54,14.33-4.27-4.09,2.16-8.84,3.35-13.99,3.33-6.51-.03-12.34-2.01-17-5.43Z"/><path class="cls-3" d="M787.12,650.1c.03-6.85-2.5-12.91-6.73-17.32-11.56-.13-23.13-.43-34.69-.74-4.6,4.38-7.41,10.61-7.42,17.7-.01,7.4,2.85,13.82,7.6,18.24,4.66,3.42,10.49,5.4,17,5.43,5.15,.02,9.9-1.18,13.99-3.33,6.26-4.29,10.21-11.48,10.25-19.98Z"/><path class="cls-3" d="M762.88,625.4c-6.78-.04-12.79,2.46-17.18,6.64,11.56,.31,23.13,.62,34.69,.74-4.36-4.55-10.51-7.33-17.52-7.38Z"/><path class="cls-3" d="M803.65,588.25c6.26-.21,12.06,.4,11.45-8.78-.46-6.94-.37-13.95,0-20.9,.35-6.6-2.11-8.94-8.84-8.71-11.33,.39-11.34,0-11.35,11.34,0,2.41,0,4.83,0,7.24,0,3.75,.35,7.55-.07,11.25-.79,6.96,2.42,8.77,8.83,8.55Z"/><path class="cls-3" d="M831.66,568.44c0,3.75,.35,7.55-.07,11.25-.79,6.96,2.42,8.77,8.83,8.55,6.26-.21,12.06,.4,11.45-8.78-.46-6.94-.37-13.95,0-20.9,.35-6.6-2.11-8.94-8.84-8.71-11.33,.39-11.34,0-11.35,11.34,0,2.41,0,4.83,0,7.24Z"/><path class="cls-3" d="M767.56,588.22c10.8-.2,10.81,.06,10.84-10.37,0-2.68,0-5.37,0-8.05,0-2.68,0-5.37,0-8.05,0-12.2,0-11.94-12.35-11.9-5.27,.02-7.11,1.76-6.89,6.98,.33,7.77,.51,15.59-.05,23.33-.49,6.77,2.48,8.17,8.45,8.06Z"/></g><path class="cls-3" d="M862.75,503.69h13.03v26.86h26v-26.86h13.67c6.67,0,10.83-7.22,7.5-12.99l-13.17-22.82-13.17-22.82c-3.33-5.77-11.67-5.77-15,0l-13.17,22.82-13.17,22.82c-3.33,5.77,.83,12.99,7.5,12.99Z"/></g></g></svg>