<svg xmlns="http://www.w3.org/2000/svg" xmlns:xlink="http://www.w3.org/1999/xlink" id="Layer_1" viewBox="628.57 435.28 341.73 237.92" width="100vw" height="100vh" preserveAspectRatio="none"><defs><style>.cls-1{fill:none;}.cls-2{fill:url(#linear-gradient);}.cls-3{clip-path:url(#clippath);}.cls-4{fill:url(#linear-gradient-3);}.cls-5{fill:url(#linear-gradient-4);}.cls-6{fill:url(#linear-gradient-2);}.cls-7{fill:url(#linear-gradient-5);}</style><clipPath id="clippath"><rect class="cls-1" x="628.57" y="435.28" width="341.73" height="237.92" rx="9.07" ry="9.07"/></clipPath><linearGradient id="linear-gradient" x1="822.72" y1="445.13" x2="780.47" y2="599.62" gradientTransform="matrix(1, 0, 0, 1, 0, 0)" gradientUnits="userSpaceOnUse"><stop offset=".08" stop-color="#d0af12"/><stop offset=".86" stop-color="#fee925"/></linearGradient><linearGradient id="linear-gradient-2" x1="822.66" y1="445.12" x2="780.41" y2="599.61" xlink:href="#linear-gradient"/><linearGradient id="linear-gradient-3" x1="896.73" y1="465.37" x2="854.48" y2="619.86" xlink:href="#linear-gradient"/><linearGradient id="linear-gradient-4" x1="777.36" y1="432.73" x2="735.11" y2="587.22" xlink:href="#linear-gradient"/><linearGradient id="linear-gradient-5" x1="773.2" y1="431.59" x2="730.95" y2="586.08" xlink:href="#linear-gradient"/></defs><g class="cls-3"><g><path class="cls-2" d="M939.64,571.34c5.87-6.11,11.5-12.46,17.54-19.05-5.96-6.51-11.34-12.67-17.06-18.5-2.95-3.01-3.26-5.67-1.42-9.39,3.68-7.4,6.95-15.01,10.48-22.73-7.09-4-13.6-8.14-20.51-11.43-5.13-2.44-6.48-5.69-5.58-11.06,1.27-7.54,1.87-15.19,2.8-23.11-8.56-1.73-16.68-3.48-24.84-4.96-3.59-.65-5.65-2.12-6.32-5.98-1.46-8.31-3.34-16.54-5.12-25.17-7.48,.81-14.77,.93-21.73,2.52-7.13,1.63-10.55-1.15-13.4-7.14-3.05-6.42-6.93-12.45-10.55-18.82-8.16,3.76-15.8,7.07-23.22,10.8-3.5,1.76-5.88,1.09-8.54-1.46-6.12-5.86-12.45-11.49-18.79-17.3-5.88,5.4-11.82,10.35-17.13,15.89-3.84,4-7.22,4.66-12.18,1.99-6.84-3.68-14.1-6.57-21.32-9.87-4.24,7.52-8.36,14.39-12.03,21.49-2.07,4.01-4.52,5.47-9.18,4.69-8-1.34-16.12-1.9-24.42-2.82-1.7,8.41-3.51,16.2-4.78,24.07-.73,4.52-2.74,6.57-7.32,7.28-8.01,1.25-15.92,3.15-24.12,4.84,1.02,8.87,1.9,17.3,2.99,25.7,.46,3.52-.73,5.65-3.89,7.33-7.48,3.97-14.79,8.26-22.39,12.54,3.44,7.54,6.49,14.95,10.18,22.02,2.21,4.26,1.82,7.24-1.55,10.63-5.72,5.74-11.05,11.89-16.62,17.95,5.93,6.48,11.29,12.68,17.04,18.48,3,3.02,3.29,5.71,1.47,9.4-3.66,7.42-6.96,15.01-10.52,22.76,6.93,3.9,13.47,7.58,20.02,11.26,7.07,3.97,7,3.97,5.91,12.14-.97,7.28-1.75,14.58-2.65,22.17,7.75,1.59,15.09,3.12,22.44,4.59,7.93,1.59,7.88,1.57,9.4,9.6,1.39,7.32,2.93,14.61,4.43,22.01,8.73-.95,16.88-1.57,24.93-2.83,4.24-.66,6.51,.66,8.43,4.31,3.86,7.34,8.1,14.48,12.27,21.87,7.92-3.63,15.55-6.91,22.98-10.61,3.59-1.79,6.11-1.36,8.96,1.41,6.04,5.87,12.38,11.43,18.68,17.2,6.52-5.98,12.76-11.53,18.77-17.3,2.68-2.57,5.06-3.14,8.54-1.41,7.56,3.75,15.33,7.07,23.3,10.7,4.23-7.5,8.42-14.68,12.34-22,1.82-3.39,3.91-4.85,8.03-4.22,8.32,1.27,16.74,1.92,25.3,2.85,1.68-8.33,3.57-16.11,4.72-24,.72-4.9,3.22-6.69,7.75-7.44,7.85-1.3,15.62-3.06,23.78-4.71-1.01-8.42-1.82-16.37-2.98-24.27-.64-4.37,.47-7.19,4.64-9.3,7.26-3.67,14.25-7.88,21.63-12.03-3.72-8.05-7.18-15.77-10.86-23.39-1.53-3.18-1.23-5.59,1.28-8.19Zm-146.43,91.03c-61.28-.36-110.39-49.82-110.04-110.84,.35-60.7,50.2-109.72,111.12-109.28,61.01,.44,109.8,50.23,109.31,111.56-.48,59.81-50.4,108.91-110.39,108.56Z"/><path class="cls-6" d="M793.65,450.83c-55.8-.18-101.66,44.95-101.88,100.25-.23,56.83,44.85,102.6,101.36,102.91,55.39,.3,101.6-45.29,101.83-100.47,.23-57.1-44.57-102.51-101.3-102.7Zm-63.53,133.66c-.91,5.24-5.23,8.26-12.13,9.06-3.56-1.28-7.29-2.24-10.57-4.03-1.19-.65-1.29-3.3-1.89-5.03,1.69-.18,3.45-.75,5.06-.46,3.07,.55,6.01,1.84,9.09,2.29,.93,.14,3.05-1.58,2.98-2.28-.13-1.24-1.27-2.86-2.42-3.4-2.44-1.15-5.17-1.65-7.75-2.53-4.24-1.44-6.72-4.17-6.51-8.92,.2-4.61,2.63-8.21,6.9-8.62,4.54-.43,9.31,.76,13.86,1.77,.92,.2,1.34,2.72,1.99,4.16-1.61,.53-3.27,1.62-4.82,1.48-2.48-.23-4.86-1.64-7.34-1.81-1.1-.08-2.32,1.65-3.49,2.55,.86,1.01,1.53,2.37,2.62,2.94,1.68,.87,3.64,1.17,5.48,1.74,6.94,2.13,9.87,5.78,8.94,11.1Zm25.96,7.87c-4.93,.43-9.92,.13-14.89,.15-3.38,.02-5.01-1.66-5.01-5.01,0-7.53,0-15.06,0-22.59,0-3.1,1.51-4.84,4.65-4.88,5.29-.06,10.59-.24,15.85,.13,1.47,.1,2.82,1.94,4.23,2.98-1.45,1.14-2.8,3.08-4.36,3.26-4.09,.46-8.26,.16-12.79,.16v6.49c3.34,0,6.5,0,9.66,0,2.47,0,5.45-.08,5.11,3.25-.12,1.14-3.11,2.55-4.94,2.83-3.1,.47-6.32,.13-9.78,.13v6.71c4.07,0,8.22-.32,12.27,.15,1.76,.2,3.34,2.04,5,3.13-1.66,1.09-3.25,2.96-5,3.12Zm7.22-54.47c-1.52,5.01-5.68,6.22-10.17,6.52-3.99,.26-8.01,.02-12.02,.1-3.41,.07-5.02-1.5-5.01-4.92,.04-7.38,.07-14.75-.02-22.13-.04-3.61,1.51-5.37,5.16-5.3,3.53,.06,7.06-.09,10.58,.08,4,.19,7.64,1.24,9.42,5.39,1.74,4.04-.06,7.12-2.94,9.95,3.95,2.4,6.45,5.48,4.99,10.31Zm22.73,54.47c-4.61,.42-9.28,.12-13.93,.16-3.37,.03-5.06-1.57-5.06-4.94,0-7.69-.22-15.39,.16-23.06,.08-1.59,2.36-3.07,3.63-4.59,1.18,1.62,3.28,3.18,3.38,4.86,.39,6.83,.16,13.69,.16,21.1,4.37,0,7.93-.36,11.37,.15,1.75,.26,3.26,2.1,4.88,3.23-1.53,1.08-2.98,2.94-4.59,3.09Zm2.9-47.89c-4.81-.02-9.62-.07-14.42,.01-3.38,.06-5.03-1.32-4.99-4.84,.09-7.53,.09-15.06,0-22.59-.04-3.16,1.24-4.88,4.46-4.9,5.29-.03,10.59-.23,15.85,.12,1.43,.1,2.74,1.94,4.1,2.98-1.44,1.08-2.8,2.94-4.34,3.1-4.1,.44-8.27,.15-12.92,.15v6.57c3.69,0,7.36-.33,10.91,.15,1.56,.21,2.9,2.07,4.34,3.18-1.41,.97-2.74,2.58-4.25,2.76-3.45,.42-6.98,.13-10.8,.13v6.74c3.95,0,8.07-.3,12.11,.14,1.81,.2,4.74,1.69,4.93,2.93,.51,3.36-2.46,3.36-4.96,3.35Zm25.54,47.87c-4.77,.41-9.59,.19-14.39,.13-2.86-.04-4.41-1.45-4.4-4.47,.04-8-.16-16.02,.19-24,.06-1.4,2.32-2.7,3.56-4.05,1.08,1.34,3.05,2.64,3.11,4.02,.32,7.14,.15,14.31,.15,21.92,4.24,0,7.94-.35,11.51,.15,1.71,.24,3.19,2.1,4.78,3.22-1.49,1.08-2.92,2.95-4.49,3.08Zm9.09-55.73c-.88,5.16-5.42,8.32-12.13,8.95-3.57-1.27-7.32-2.2-10.62-3.98-1.18-.63-1.25-3.31-1.83-5.05,1.7-.17,3.47-.73,5.08-.43,2.92,.55,5.7,1.92,8.62,2.3,1.1,.14,2.43-1.52,3.66-2.36-.88-1.14-1.53-2.78-2.69-3.32-2.59-1.2-5.48-1.74-8.18-2.75-3.77-1.41-6.09-3.92-6.07-8.26,.02-4.39,2.05-7.38,5.98-8.96,5.12-2.07,10.15-1.3,14.71,1.56,1.13,.71,1.42,2.76,2.1,4.2-1.63,.54-3.29,1.62-4.87,1.5-2.48-.18-4.87-1.45-7.35-1.67-1.06-.09-2.25,1.3-3.37,2.02,.85,1.18,1.46,2.77,2.61,3.43,1.62,.92,3.64,1.11,5.48,1.67,6.91,2.11,9.79,5.74,8.86,11.14Zm20.64,55.75c-4.94,.39-9.94,.08-14.91,.17-3.36,.06-5.21-1.4-5.22-4.78-.04-7.7-.04-15.41,.03-23.11,.03-3.1,1.7-4.65,4.88-4.62,5.14,.05,10.29-.24,15.39,.18,1.51,.12,2.87,2.16,4.29,3.31-1.41,1.01-2.74,2.74-4.23,2.88-4.11,.4-8.29,.14-12.96,.14v6.52c3.61,0,7.13-.32,10.54,.14,1.65,.22,3.11,1.89,4.66,2.91-1.5,1.05-2.9,2.78-4.52,3.01-3.29,.48-6.69,.14-10.43,.14v6.71c4.11,0,8.28-.33,12.35,.16,1.69,.2,3.18,2.14,4.76,3.29-1.54,1.03-3.01,2.82-4.62,2.95Zm5.39-73.82c-1.55,.52-3.42,.12-5.82,.12,0,7.27-.03,13.81,.01,20.36,.02,2.73-.16,5.51-3.7,5.49-3.52-.03-3.68-2.82-3.67-5.54,.04-6.54,.01-13.08,.01-20.32-2.07,0-3.91,.41-5.42-.11-1.63-.57-2.96-2.02-4.42-3.08,1.32-1.09,2.6-3.06,3.98-3.13,6.38-.33,12.8-.33,19.18,.02,1.34,.07,2.57,2.09,3.85,3.2-1.32,1.04-2.5,2.5-4.01,3Zm31.6,48.17c2.06,5.06,.22,9.77-5.35,14.31,1.73,2.19,3.53,3.91,4.57,6.01,.46,.93,.24,2.2,.08,3.44-.05,.41-.1,.82-.11,1.22-.22-.01-.44-.02-.67-.02-.45,0-.93,.03-1.39,.05-1.17,.05-2.29,.04-3.02-.5-1.99-1.49-3.53-3.71-4.89-5.86-1.9-3.01-4.31-4.03-8.24-2.69,0,1.83,.43,4-.13,5.86-.46,1.53-2.11,2.71-3.23,4.04-1.27-1.17-3.59-2.31-3.64-3.52-.32-8.47-.35-16.97,.03-25.43,.06-1.26,2.58-3.15,4.19-3.44,3.11-.55,6.38-.21,9.58-.16,5.23,.08,10.01,1.25,12.22,6.68Z"/><path class="cls-4" d="M862.43,576.91c4.39-1.28,8.07-2.14,11.51-3.58,.53-.22,.41-4.33-.19-4.55-3.49-1.29-7.2-1.96-11.32-2.95v11.08Z"/><path class="cls-5" d="M755.04,533.31c-.72-.91-1.46-1.76-2.33-1.92-2.89-.55-5.95-.17-9.23-.17v6.85c3.35,0,6.41,.32,9.35-.15,.81-.13,1.53-.87,2.24-1.67,.28-.32,.57-.65,.85-.95,.14-.15,.29-.3,.43-.43h0c-.15-.15-.3-.32-.45-.49-.29-.34-.58-.72-.87-1.08Z"/><path class="cls-7" d="M750.78,525c1.46-.37,2.56-2.14,3.82-3.28-1.33-1.07-2.52-2.71-4.02-3.07-2.2-.53-4.61-.14-7.19-.14v6.63c2.73,0,5.19,.41,7.39-.15Z"/></g></g></svg>