<?xml version="1.0" encoding="UTF-8"?><svg id="Layer_1" xmlns="http://www.w3.org/2000/svg" xmlns:xlink="http://www.w3.org/1999/xlink" viewBox="628.57 435.28 341.73 237.92" width="100vw" height="100vh" preserveAspectRatio="none"><defs><style>.cls-1{fill:none;}.cls-2{clip-path:url(#clippath);}.cls-3{fill:#fad63e;}</style><clipPath id="clippath"><rect class="cls-1" x="628.87" y="437.5" width="322.9" height="235.83" rx="9.07" ry="9.07"/></clipPath></defs><g class="cls-2"><g><path class="cls-3" d="M943.44,538.17c-8.25-10.9-11.57-22.41-10.06-36.26,1.99-18.35-5.32-30.38-22.14-37.74-11.63-5.09-19.77-12.63-24.72-24.37-7.01-16.59-19.77-24.91-37.99-22.75-13.93,1.65-25.59-2.17-36.84-10.35-13.11-9.53-27.14-9.38-40.81-.25-2.02,1.35-4.19,2.48-6.11,3.96-7.27,5.62-15.42,7.57-24.53,6.83-6.03-.49-12.16-1.08-18.19,.02-13.76,2.51-21.87,11.72-26.88,23.92-4.24,10.33-11.09,17.67-21.48,21.76-1.87,.74-3.61,1.82-5.42,2.73-13.99,7.09-21.05,18.77-19.29,34.08,1.72,15.05-1.89,27.54-10.76,39.69-9.3,12.73-8.54,26.54-.04,39.82,1.42,2.21,2.77,4.48,4.38,6.55,6.09,7.82,7.63,16.66,6.72,26.34-2.18,23.09,3.3,33.3,24.11,43.03,10.11,4.72,17.38,11.45,21.61,21.72,7.6,18.45,21.35,26.95,41.28,24.4,11.94-1.53,22.27,1.43,31.82,8.68,15.35,11.67,31.09,11.43,46.43-.07,9.38-7.03,19.43-10.75,31.2-8.52,18.79,2.39,32.87-4.47,40.33-22.02,5.35-12.59,13.94-20.76,26.47-25.87,11.67-4.76,18.67-13.95,20.89-26.43,.92-5.21,.42-10.51-.21-15.74-1.12-9.27,.96-17.64,6.41-25.26,2.58-3.62,5.22-7.29,7.16-11.26,6.26-12.8,5.21-25.34-3.34-36.63Zm-152.93,145.78c-68.64-.08-124.17-56.3-123.94-125.49,.23-68.99,55.93-124.08,125.38-124.02,68.25,.05,124.26,56.37,124.17,124.85-.09,69.1-56.16,124.74-125.61,124.66Z"/><path class="cls-3" d="M791.23,440.03c-65.63-.11-119.05,53.18-119.15,118.85-.09,66.06,53.23,119.52,119.17,119.48,65.69-.03,118.94-53.23,119.02-118.88,.08-66.18-52.91-119.34-119.04-119.45Zm26.45,27.7c2.94-.29,4.21,1.68,4.96,4.05-.41,2.68-1.33,4.94-4.27,5.06-2.76,.12-4.57-1.46-4.81-4.27-.25-2.87,1.33-4.57,4.13-4.84Zm-26.27-10.24c2.85,.04,4.15,1.98,4.47,4.43-.49,3.01-2.05,4.74-4.86,4.54-2.68-.19-4.52-1.78-4.39-4.68,.13-2.9,2.1-4.32,4.78-4.29Zm-9.37,28.03c2.17-3.89,4.5-7.69,6.65-11.58,1.65-2.98,3.05-3.59,4.9-.12,1.9,3.57,4.34,6.87,6.06,10.51,2.09,4.44,4.48,4.17,7.94,1.58,2.16-1.62,3.72-4.37,7.82-4.43-1.08,6.74-2.05,13.26-3.19,19.74-.39,2.21-2.2,2.56-4.2,2.55-11.14-.04-22.28-.02-33.42,0-2.22,0-4.06-.46-4.49-3.03-1.06-6.33-2.1-12.66-3.24-19.51,4.5,.79,6.63,3.76,9.38,5.59,2.78,1.86,4.31,1.35,5.8-1.32Zm29.47,23.07c-.06,2.26-1.9,2.27-3.51,2.28-5.64,.04-11.28,.01-16.92,.02-5.44,0-10.87,.04-16.31-.02-1.74-.02-3.94,.23-3.88-2.51,.05-2.23,1.77-2.32,3.47-2.31,11.28,.02,22.56,.03,33.83,.03,1.76,0,3.37,.32,3.31,2.51Zm-46.83-40.86c2.66-.08,4.1,1.55,4.16,4.11,.07,2.83-1.54,4.39-4.08,4.79-3.23-.06-4.58-1.79-4.69-4.57-.12-3.12,1.93-4.25,4.61-4.33Zm-18.6,178.73l-3.97-2.09-3.97,2.09,.76-4.42-3.21-3.13,4.44-.64,1.98-4.02,1.98,4.02,4.44,.64-3.21,3.13,.76,4.42Zm22.77,3.75l-6.4-3.37-6.4,3.37,1.22-7.13-5.18-5.05,7.16-1.04,3.2-6.49,3.2,6.49,7.16,1.04-5.18,5.05,1.22,7.13Zm34.97,6.11l-10.71-5.63-10.71,5.63,2.05-11.92-8.66-8.44,11.97-1.74,5.35-10.85,5.35,10.85,11.97,1.74-8.66,8.44,2.05,11.92Zm26.87-5.59l-6.4-3.37-6.4,3.37,1.22-7.13-5.18-5.05,7.16-1.04,3.2-6.49,3.2,6.49,7.16,1.04-5.18,5.05,1.22,7.13Zm18.76-3.93l-3.97-2.09-3.97,2.09,.76-4.42-3.21-3.13,4.44-.64,1.98-4.02,1.98,4.02,4.44,.64-3.21,3.13,.76,4.42Zm32.2-29.7c-1.8,.21-3.63,.27-5.44,.27-28.33,.02-56.67,.01-85,.01-27.93-.01-55.86,0-83.79-.02-2.02,0-4.05-.02-6.07-.13-1.55-.08-2.81-.68-2.79-2.51,.02-1.73,1.16-2.53,2.72-2.68,1.81-.17,3.63-.23,5.45-.23,56.87,0,113.74,0,170.61,.01,1.41,0,2.84,.03,4.23,.25,1.28,.2,2.32,.99,2.21,2.42-.1,1.24-.71,2.43-2.12,2.59Zm-169.25-62.68c-.28,4.54,1.04,6.62,6.08,6.45,2.78-.09,8.13-2.5,8.03,2.79-.09,4.7-5.16,2.36-7.9,2.42-13.02,.28-13.02,.13-12.86-12.91,0-.6,0-1.21,0-1.81h-.09c0-3.42,.01-6.85,0-10.27-.01-2.57,1.3-3.59,3.79-3.49,2.36,.09,3.1,1.39,3.07,3.53-.05,4.43,.16,8.87-.11,13.29Zm3.56,32.16c1.82,.03,3.64-.04,5.46,0,1.8,.03,3.86-.25,3.97,2.48,.11,2.71-1.79,2.7-3.7,2.7-1.82,0-3.64,.09-5.46,.07-2.05-.03-3.62,.46-3.71,2.91-.1,2.73,1.55,3.46,3.87,3.45,2.02,0,4.06-.14,6.07,.03,1.96,.17,4.96-1.14,5.06,2.5,.12,4.23-3.3,2.35-5.34,2.78-.58,.12-1.21,.01-1.82,.01q-14.62,0-14.6-14.45,.02-13.85,14.09-13.73c1.21,.01,2.43-.04,3.64,0,1.89,.06,3.77,.15,3.63,2.85-.12,2.27-1.76,2.44-3.43,2.48-2.63,.07-5.26,.05-7.89,.07-1.79,.01-3.19,.46-3.27,2.63-.09,2.43,1.35,3.17,3.43,3.21Zm29.19-48.8c1.88-.52,3.7-.18,4.84,1.58,1.98,3.05,3.84,6.18,5.77,9.26q4.06,6.46,7.8,.09c1.64-2.78,3.47-5.46,4.96-8.32,1.11-2.12,2.65-3.01,4.9-2.57,2.46,.48,2.22,2.53,2.22,4.34,.03,6.67,.01,13.34,.04,20.02,0,2.19-.19,4.11-3.12,4.06-2.73-.05-3.25-1.71-3.35-4.02-.13-2.94,.63-5.97-.72-9.36-3.36,2.08-3.99,5.28-5.72,7.69-2.41,3.37-4.31,3.14-6.38-.15-1.56-2.48-3.17-4.92-5.41-8.39-1.68,4.32-.8,7.52-1,10.57-.13,2.04-.51,3.59-2.97,3.67-2.64,.09-3.57-1.27-3.54-3.73,.07-7.08,.06-14.15,.09-21.23,0-1.41-.19-3.02,1.59-3.51Zm27.16,52.41c0,3.23-.07,6.46,.02,9.69,.06,2.19-.68,3.41-3.03,3.52-2.31,.11-3.35-.91-3.37-3.17-.04-7.45-.13-14.9-.13-22.35,0-2.14,1.56-2.56,3.34-2.57,1.9-.01,3.1,.68,3.1,2.78-.01,4.03,0,8.07,0,12.1h.06Zm-24.86-14.78c8.36,.91,13.38,5.96,13.52,13.56,.14,7.91-4.89,13.28-13.37,14.27q-15.02,1.76-15.01-14.44,.02-15.01,14.85-13.39Zm-10.5-23.47c-.01,3.44-.05,6.88,0,10.33,.04,2.28-.37,3.96-3.22,3.99-2.62,.03-3.58-1.09-3.55-3.65,.08-7.09,.06-14.17,0-21.26-.03-2.56,1.08-3.65,3.62-3.7,2.92-.05,3.22,1.71,3.18,3.97-.06,3.44-.02,6.88-.02,10.33Zm45.41-.03c0-3.44,.03-6.88,0-10.32-.03-2.24,.3-3.97,3.2-4.01,2.67-.04,3.53,1.18,3.51,3.67-.05,7.08,0,14.16,.06,21.24,.02,2.45-.89,3.82-3.53,3.77-2.76-.06-3.29-1.72-3.25-4.04,.07-3.44,.02-6.88,.02-10.32Zm14,23.37c1.86,0,3.79-.03,3.92,3.56,.05,1.72-1.91,2.03-3.73,1.85-4.6-.44-5.41,2.02-5.2,5.88,.23,4.23-.02,8.48,.1,12.72,.07,2.66-.65,4.28-3.67,4.21-2.87-.07-3.1-1.86-3.07-4.09,.07-4.44-.11-8.89,.05-13.33,.13-3.52-.44-6.01-4.86-5.38-2.24,.32-4.24-.25-4.05-3.06,.17-2.64,2.37-2.27,4.15-2.28,5.45-.05,10.91-.07,16.36-.07Zm24.21-23.38c0-10.27,0-13.16,5.34-13.96,.7-.1,1.49-.17,2.38-.22,1.78-.09,3.98-.08,6.68-.07,.81,0,1.63-.09,2.43,0,1.99,.21,4.99-1.04,4.79,2.72-.18,3.41-3.02,2.59-5.09,2.7-2.22,.12-4.46-.06-6.68,.07-1.89,.11-2.91,1.23-2.79,3.21,.11,1.74,1.18,2.48,2.79,2.53,2.23,.07,4.46,.06,6.68,.12,1.76,.05,3.27,.52,3.3,2.68,.03,2.19-1.38,2.65-3.23,2.6-1.82-.05-3.64,0-5.47,0-2.15,0-4.13,.17-4.2,3.06-.08,3.18,2.01,3.52,4.45,3.5,2.63-.03,5.27-.05,7.9,0,1.8,.03,3.27,.69,3.22,2.78-.05,2.08-1.52,2.67-3.34,2.66-5.27-.01-10.53-.05-15.8-.07-2.67-.01-3.42-1.58-3.37-3.96,.07-3.44,.02-6.88,.02-10.33Zm10.06,23.03c8.81-.04,15.25,6.08,15.32,14.53,.07,8.27-6.37,14.31-15.41,14.46-8.5,.14-15.49-6.46-15.41-14.56,.09-8.34,6.58-14.39,15.5-14.43Zm-16.79-31.83c-4.93-.58-5.79,2.14-5.57,6.25,.22,4.04,.01,8.09,.05,12.14,.02,2.37-.08,4.58-3.25,4.73-3.77,.18-3.49-2.48-3.49-4.96,0-4.25-.16-8.51,.03-12.75,.17-3.79-1.06-5.81-5.16-5.44-2.16,.19-4.28-.06-4.03-3.04,.22-2.63,2.32-2.34,4.13-2.36,2.83-.02,5.67,0,8.5,0v-.05c2.83,0,5.67,0,8.5,0,1.99,0,3.72,.27,3.58,2.89-.11,2.15-1.52,2.79-3.31,2.59Zm-3.64,57.09c.04,2.43-1.27,3.13-3.43,3.07-2-.06-2.91-1.01-2.9-3,.03-7.27,0-14.54,.02-21.82,0-2.31,1.26-3.11,3.49-3.11,2.68,0,2.83,1.72,2.83,3.65,0,3.43,0,6.87,0,10.3h-.03c0,3.64-.05,7.27,.02,10.91Zm47.16-7.28c-.1,2.62-.06,5.24-.15,7.86-.07,2.08-1.43,2.74-3.27,2.66-1.75-.08-3.21-.58-3.21-2.75,.02-7.46,.04-14.92,.08-22.38,0-1.29,.38-2.42,1.79-2.8,2.2-.59,3.81,.31,5.34,1.92,3.71,3.91,6.36,8.77,11.26,12.6,1.56-4.07,.78-7.48,.83-10.83,.04-2.4,.77-3.8,3.45-3.84,2.85-.04,3.27,1.59,3.25,3.9-.07,6.45,.02,12.91-.08,19.36-.02,1.65,.85,3.94-1.71,4.55-2.31,.55-4.28-.09-5.84-2.14-2.43-3.21-5.06-6.27-7.63-9.37-.84-1.01-1.42-2.75-3.21-1.98-1.4,.6-.85,2.09-.89,3.23Zm8.01-27.28c-4.68,.94-9.65,.46-14.49,.58-2.02,.05-2.89-1.12-2.89-3.06,0-7.48,.02-14.95-.03-22.43-.01-2.44,1.33-3.12,3.47-3.07,1.01,.02,2.02,.02,3.03,.02,1.01,0,2.02-.01,3.03-.01,1.13-.06,2.25-.08,3.36-.06,3.68,.08,7.18,.76,10.16,2.93,.89,.65,1.74,1.44,2.53,2.38,6.78,8.13,2.47,20.59-8.16,22.72Zm18.29-39.4c-.23,3.6-3.65,2.47-5.83,2.47-28.76,.07-57.51,.05-86.27,.05v.23c-28.55,0-57.1,0-85.65,0-.81,0-1.61-.1-2.42-.2-2.08-.25-5.13,.49-4.87-2.92,.24-3.07,3.1-2.61,5.27-2.61,58.12,0,116.24,0,174.36,.05,2.24,0,5.64-.78,5.41,2.93Z"/><path class="cls-3" d="M859.84,543.15c-7.69-.35-4.27,5.43-5.28,8.85,1.05,3.35-2.61,9.16,5.22,8.72,6.31-.36,9.94-3.25,10-8.73,.06-5.33-3.84-8.56-9.94-8.84Z"/><path class="cls-3" d="M743.94,598.15c6.5-.16,10.5-3.46,10.33-9.1-.16-5.23-3.69-7.91-9.82-8.27-7.8-.45-4.3,5.36-5.37,8.86,1.33,2.97-2.66,8.69,4.86,8.51Z"/><path class="cls-3" d="M830.38,598.22c4.97,.13,8.78-3.56,8.88-8.6,.11-5.29-3.19-8.76-8.45-8.89-5.16-.12-8.86,3.4-8.91,8.48-.05,5.21,3.4,8.88,8.48,9.01Z"/></g></g></svg>