<?xml version="1.0" encoding="UTF-8"?><svg id="Layer_1" xmlns="http://www.w3.org/2000/svg" xmlns:xlink="http://www.w3.org/1999/xlink" viewBox="628.57 435.28 341.73 237.92" width="100vw" height="100vh" preserveAspectRatio="none"><defs><style>.cls-1{fill:none;}.cls-2{clip-path:url(#clippath);}.cls-3{fill:#fad63e;}</style><clipPath id="clippath"><rect class="cls-1" x="607.35" y="434.7" width="400.12" height="238.49" rx="9.07" ry="9.07"/></clipPath></defs><g class="cls-2"><g><path class="cls-3" d="M763.79,485.9c-10.96-11.8-23.13-22.36-39.25-26.82-13.42-3.71-23.9,2.39-27.23,15.83-2.75,11.12-2.06,22.35,.47,33.3,9.64,41.83,30.25,77.65,60.71,107.74,9.34,9.22,19.83,17.15,32.81,20.7,14.43,3.96,24.29-1.87,27.71-16.32,1.1-4.66,1.36-9.52,2-14.3-.83-6.22-1.24-12.39-2.54-18.37-8.5-39.12-27.65-72.65-54.68-101.76Zm23.55,124.87c-13.77-8.9-24.46-20.79-33.85-33.84,7.12-8.17,8.35-17.58,4.04-25.85-4.77-9.16-13.62-13.36-26.16-11.46-5.59-12.01-9.91-24.58-12.34-37.91-1.22-6.67-1.02-13.59-1.47-20.39,.62-.45,1.25-.89,1.87-1.34,4.52,2.59,9.31,4.82,13.52,7.84,13.21,9.48,23.53,21.79,32.72,35.04,15.24,21.97,27.08,45.54,31.85,72.11,1.16,6.46,.84,13.19,1.3,21.58-5.03-2.5-8.46-3.83-11.48-5.78Z"/><path class="cls-3" d="M738.13,607c-9.92,1.52-19.76,3.58-29.7,4.89-3.61,.48-8.25,.63-11.02-1.19-16.29-10.71-25.42-25.96-25.89-45.68-.07-2.87,1.96-6.16,3.83-8.63,6.29-8.3,13.03-16.26,19.39-24.5,1.01-1.31,1.69-3.62,1.29-5.14-2.51-9.49-5.38-18.89-8.18-28.51-.44,1.44-.93,2.83-1.29,4.24-3.89,15.24-11.16,28.83-23.33,38.67-13,10.51-27.07,19.73-40.94,29.11-4.93,3.33-8.37,7.15-9.79,12.96-2.81,11.51,.13,22.23,4.58,32.62,6.32,14.75,15.56,27.22,29.93,35.13,8.06,4.44,15.64,4.39,24.24-.43,13.61-7.62,27.79-14.45,42.3-20.14,16.2-6.35,33.17-6.44,49.95-1.06-6.89-7.22-13.45-14.28-20.27-21.06-1.09-1.08-3.48-1.52-5.11-1.27Z"/><path class="cls-3" d="M737.62,660.34c-6.24,1.08-11.49-.56-16.23-4.22-3.68-2.84-7.14-5.99-10.53-9.19-3.37-3.19-7.44-4.18-11.37-2.36-8.05,3.72-15.8,8.09-24.45,12.59,11.73,12.63,22.38,24.59,33.6,35.98,5.61,5.7,13.26,7.01,20.16,2.9,8.62-5.12,16.59-11.36,24.64-17.39,3.24-2.43,3.71-6.09,1.51-9.53-4.01-6.26-9.65-10.11-17.33-8.78Z"/><path class="cls-3" d="M840.48,533.85c-.06,.35-.12,.69-.18,1.04,39.07,13.26,78.13,26.52,117.74,39.97,6.05-16.19,11.76-31.45,17.78-47.54-45.76,2.21-90.54,4.37-135.33,6.53Z"/><path class="cls-3" d="M898.4,440.18c-21.99,21.34-43.36,42.08-64.72,62.83-.89,.86-1.67,1.81-2.5,2.71,.3,.35,.6,.7,.9,1.05,34.52-10.1,69.04-20.2,104.4-30.54-13.19-12.48-25.45-24.08-38.09-36.05Z"/><path class="cls-3" d="M874.69,406.29c-.1-.85-43.83-10.76-44.59-10-12.8,26.43-18.26,40.55-30.57,65.95,.58,.34,1.17,.68,1.75,1.01,21.7-15.72,50.99-40.74,73.41-56.97Z"/><path class="cls-3" d="M838.36,569.12c.24-.27,28.4,66.18,28.64,65.91l36.91-14.61s-54.15-37.04-65.55-51.3Z"/></g></g></svg>