<?xml version="1.0" encoding="UTF-8"?><svg id="Layer_1" xmlns="http://www.w3.org/2000/svg" xmlns:xlink="http://www.w3.org/1999/xlink" viewBox="628.57 435.28 341.73 237.92" width="100vw" height="100vh" preserveAspectRatio="none"><defs><style>.cls-1{fill:none;}.cls-2{clip-path:url(#clippath);}.cls-3{fill:#fad63e;}</style><clipPath id="clippath"><rect class="cls-1" x="554.03" y="434.57" width="417.29" height="239.82" rx="9.07" ry="9.07"/></clipPath></defs><g class="cls-2"><g><g><path class="cls-3" d="M602.68,616.57c-3.93-4.83-6.55-10.22-7.1-16.44-1.03-11.67,3.58-20.78,12.6-28.1,38.4-31.15,76.72-62.41,115.06-93.63,1.02-.84,2.01-1.71,3.02-2.57-1.54-.26-2.57,.09-3.59,.5-47.6,18.93-95.2,37.87-142.8,56.78-12.97,5.15-17.21,14.67-12.09,27.56,14.3,36,28.68,71.96,42.91,107.98,2.69,6.82,5.18,13.63,11.66,17.93l4.16,1.59c10.29,1.18,18.58-4.39,28.03-7.73-1.35-1.71-2.24-2.88-3.17-4.02-16.22-19.95-32.42-39.91-48.67-59.84Z"/><path class="cls-3" d="M962.5,450.04c2.28-19.7-3.5-36.3-20.8-47.41-12.58-8.08-26.81-9.72-41.09-7.04-41.21,7.72-70.3,31.18-86.82,69.71-5.42,12.63-6.64,26-3.16,39.59,.8,3.14,1.23,6.45,1.31,9.69,.16,7.22,5.22,13.57,12.19,14.83,7.27,1.32,14.12-2.71,16.71-9.81,2.54-6.97-.12-13.98-6.57-17.82-4.51-2.68-9.17-2.22-13.87-.88-.29-.49-.58-.77-.65-1.1-.24-1.09-.44-2.18-.58-3.28-1.37-10.86,.7-21.24,5.1-31.07,9.18-20.5,24.02-36.06,43.18-47.49,15.28-9.12,31.66-14.59,49.77-13.01,23.89,2.09,37.85,19.11,35.5,42.99-1.04,10.54-4.59,20.24-10.01,29.22-13.46,22.29-32.5,37.89-56.95,46.9-.93,.34-2.27,.52-2.65,1.2-.98,1.78-2.49,4.12-1.99,5.63,.51,1.52,3.07,2.66,4.96,3.31,1.05,.36,2.58-.57,3.86-1.03,17.64-6.42,32.83-16.61,45.68-30.22,14.13-14.97,24.45-32.05,26.87-52.91Z"/></g><path class="cls-3" d="M884.26,563.06c-3.78-24.81-7.84-49.58-11.97-74.33-.99-5.96-4.46-10.43-10.13-12.84-3.75-1.59-7.62-2.93-11.43-4.39,.02-.06,.05-.12,.07-.19-3.59-1.37-7.23-2.6-10.74-4.14-2.7-1.19-4.34-.37-5.13,2.22-1.49,4.83-2.76,9.72-4.24,14.55-1.02,3.34,.2,4.74,3.52,5.64,12.81,3.48,20.42,15.51,18.65,29.02-1.62,12.41-12.54,22.03-25.33,22.31-13.09,.29-24.32-8.94-26.48-21.8-1.06-6.3-2.11-12.61-2.98-18.95-2.02-14.72,.56-28.8,6.46-42.31,1.15-2.63,.99-4.01-1.91-4.93-3.41-1.09-6.73-2.48-10.09-3.75-7.42-2.81-13.91-1.29-20.02,3.69-52.69,42.99-105.45,85.89-158.17,128.84-9,7.33-10.2,18.59-2.89,27.6,26.27,32.33,52.58,64.64,78.95,96.9,1.61,1.97,3.58,3.85,5.77,5.08,8.05,4.51,15.55,3.32,22.66-2.49,30.64-25.04,61.34-49.99,92.01-74.97,21.95-17.88,43.89-35.78,65.88-53.61,5.51-4.47,8.6-10.17,7.54-17.15Zm-178.15,83.05c-1.34,9.27-9.45,16.72-18.77,16.97-4.06,.11-6.76-1.78-7.09-4.98-.36-3.45,1.96-5.83,6.14-6.31,4.62-.53,7.1-2.48,8.1-6.37,1.28-5-2.72-9.08-7.65-7.52-3.16,1-6.11,2.67-9.16,4-8.06,3.5-13.29,2.83-18.72-2.48-5.87-5.73-7.61-12.48-5.74-17.86,3.76-9.89,10.68-14.88,18.47-15.09,4.21-.11,6.89,1.92,7.08,5.38,.19,3.41-1.97,5.27-6.12,6-2.09,.37-4.34,1.17-5.96,2.47-2.79,2.22-3.25,6.44-1.39,9.06,2.15,3.03,5.09,3.2,8.24,1.86,2.84-1.21,5.65-2.52,8.42-3.88,14.52-7.13,25.73,7.95,24.16,18.75Zm37.12-23.79c-1.85,2.74-5.11,3.08-8.46,.84-2.05-1.37-4.07-2.79-6.07-4.23-4.1-2.93-7.25-2.44-10.11,1.86-.46,.7-.3,2.11,.06,3,1.25,3.1,2.84,6.06,4.04,9.17,.58,1.52,.57,3.26,.7,4.07-1.92,4.87-6.92,5.75-9.71,2.55-.24-.28-.48-.58-.63-.91-7.32-15.98-14.71-31.92-21.89-47.96-1.54-3.43,.79-7.1,4.41-7.38,1.46-.12,3.25,.37,4.45,1.21,13.81,9.75,27.55,19.59,41.27,29.47,3.32,2.39,3.92,5.39,1.94,8.3Zm32.27-26.01c-6.29,5.2-12.6,10.36-18.97,15.45-3.7,2.96-6.61,2.67-9.61-.99-10.1-12.33-20.15-24.71-30.18-37.09-2.7-3.33-2.6-6.64,.09-8.84,2.74-2.25,5.86-1.71,8.64,1.68,8.23,10.03,16.4,20.11,24.6,30.16,.85,1.04,1.76,2.04,2.9,3.36,5.31-4.32,10.26-8.4,15.26-12.4,3.31-2.65,6.69-2.6,8.89,.01,2.23,2.64,1.68,5.95-1.62,8.67Zm33.94-27.64c-6.56,5.45-13.16,10.84-19.84,16.13-3.24,2.57-6.14,2.25-8.75-.92-10.35-12.6-20.65-25.25-30.9-37.94-2.56-3.17-2.29-6.18,.83-8.79,6.64-5.55,13.35-11.01,20.13-16.37,2.85-2.25,5.9-1.92,7.96,.46,2.11,2.45,1.9,5.84-.87,8.21-5.15,4.4-10.45,8.63-16.07,13.25,2.85,3.52,5.54,6.83,8.6,10.61,2.14-1.72,4.12-3.29,6.08-4.88,3.07-2.49,6.1-5.03,9.19-7.5,3.62-2.88,6.87-2.86,9.11,0,2.23,2.84,1.56,5.94-2.04,8.91-4.86,4.01-9.76,7.96-15.09,12.29,2.93,3.62,5.62,6.95,8.55,10.57,1.23-.93,2.3-1.7,3.32-2.53,4.23-3.42,8.39-6.91,12.68-10.26,3.06-2.39,6.14-2.19,8.25,.29,2.23,2.62,1.89,5.94-1.15,8.47Z"/></g></g></svg>